<?xml version="1.0" encoding="UTF-8"?>
<svg version="1.1" viewBox="0 0 2000 2000" width="1280" height="1280" xmlns="http://www.w3.org/2000/svg">
<path transform="translate(754,250)" d="m0 0h75l5 1v133l5-3 10-9 15-9 15-6 19-4 10-1h22l22 3 20 6 16 8 13 8 9 7 12 11 11 14 9 15 8 18 5 19 3 22v27l-4 26-5 16-5 12-7 13-10 14-12 13-12 10-18 11-17 7-13 4-16 3-11 1h-20l-18-2-18-5-17-8-10-7-10-9-5-4 1 2v28l-2 1h-75l-1-1v-384zm137 169-14 4-10 5-9 7-9 9-8 13-5 14-2 9-1 21 2 16 4 13 7 14 9 11 12 9 13 6 12 3h25l15-4 13-7 11-9 9-12 5-10 4-14 2-13v-15l-3-19-5-13-7-12-9-10-10-7-12-6-12-3z" fill="#9046FC"/>
<path transform="translate(192,352)" d="m0 0h22l22 3 20 6 16 8 13 8 9 7 12 11 11 14 9 15 8 18 5 19 3 22v28l-4 25-5 16-5 12-7 13-9 13-14 15-14 11-15 9-17 7-13 4-16 3-11 1h-20l-21-3-16-5-16-8-11-8-7-7-3-1 1 4v123l-1 1-14 1h-66l-1-1v-379l1-1h76l1 1v29l7-6 11-9 14-8 12-5 16-4zm-17 67-14 4-10 5-9 7-9 9-8 13-5 14-2 9-1 21 2 16 4 13 7 14 9 11 12 9 13 6 12 3h25l15-4 13-7 11-9 9-12 5-10 4-14 2-13v-15l-3-19-5-13-7-12-9-10-10-7-12-6-12-3z" fill="#9046FC"/>
<path transform="translate(441,1364)" d="m0 0h164l20 1 21 3 19 5 21 8 16 9 12 9 13 12 9 12 8 13 6 15 5 19 2 18v17l-2 18-6 21-7 15-9 14-12 14-12 10-14 9-17 8-18 6-18 4-23 3-46 1h-47v99l-2 1h-82l-1-1zm84 69v125l1 1h75l19-2 16-5 11-6 10-8 7-10 5-12 2-11v-18l-3-14-8-16-9-9-10-6-12-5-13-3-9-1z" fill="#FEFEFE"/>
<path transform="translate(158,1364)" d="m0 0h82l5 8 18 41 11 24 16 36 18 40 12 27 26 58 17 38 20 45 15 34 5 10-1 3h-86l-3-3-17-41-13-32v-2h-170l-2 8-16 39-12 29-3 2h-80v-13l9-19 10-23 18-40 12-27 13-30 7-15 17-38 56-126 10-23 5-9zm39 84-8 21-12 29-34 82-2 6h114l-1-5-12-30-10-24-19-46-13-31-1-2z" fill="#FDFDFD"/>
<path transform="translate(1312,1358)" d="m0 0h45l25 3 27 6 24 8 21 10 7 4-2 9-12 29-10 25-3 2-17-9-26-10-19-5-18-3h-39l-16 3-13 5-9 7-6 7-4 10v15l4 9 2 4 4 2 10 6 22 8 74 19 33 11 19 10 13 10 12 12 9 14 5 14 3 16v23l-4 20-7 17-10 15-11 12-11 9-15 9-13 6-21 7-19 4-25 3h-40l-32-4-26-6-30-10-23-11-15-10 1-6 19-42 7-15 2-1 15 9 16 8 14 6 18 6 22 5 16 2h37l17-3 14-5 11-8 6-9 2-7v-11l-4-10-5-5-8-6-12-6-18-6-63-16-35-11-19-9-14-10-12-11-10-14-5-11-4-14-2-16v-12l2-14 4-15 7-16 10-14 9-10 14-11 17-10 15-6 16-5 21-4z" fill="#FEFEFE"/>
<path transform="translate(975,1358)" d="m0 0h43l27 4 19 5 19 7 21 11 17 12 15 13 10 11-2 4-7 7-8 7-17 16-12 11-6 6-4-2-10-10-13-10-16-9-16-6-12-3-7-1h-32l-19 4-17 6-14 8-13 10-8 8-9 12-10 19-5 15-2 10-1 10v28l3 17 6 18 9 17 7 9 9 10 10 8 15 9 17 7 18 4 8 1h26l16-3 16-5 17-9 11-8 10-9 7-7 4 1 17 16 10 9 15 14 9 8-1 4-19 19-19 14-27 14-24 8-25 5-16 2h-38l-28-4-22-6-16-6-16-8-11-6-14-10-11-9-17-17-12-16-8-13-11-23-6-19-4-19-2-17v-29l3-25 5-19 7-19 8-16 10-16 11-14 7-8h2l2-4 8-7 17-13 15-9 21-10 21-7 17-4z" fill="#FEFEFE"/>
<path transform="translate(601,896)" d="m0 0h26l21 2 23 5 20 8 16 10 10 9 8 8 9 14 7 15 5 19 2 14 1 17v162l-2 1h-73l-1-1v-32h-2l-2 5-7 8-10 8-16 8-16 5-11 2-12 1h-21l-22-3-16-5-17-8-13-10-8-8-7-11-5-10-4-14-1-8v-16l3-16 5-12 6-10 11-12 13-9 12-6 16-5 22-4 12-1 84-1-2-16-5-13-7-9-9-7-12-5-14-3-18-1-21 2-23 6-16 7-14 8-4 2-10-19-15-30-3-5 1-4 16-9 17-8 22-7 23-5 15-2zm-1 167-15 3-12 6-8 9-3 10v9l3 10 7 9 10 6 9 3 5 1h24l15-4 13-7 10-9 6-8 3-7 1-6v-24l-1-1z" fill="#9046FC"/>
<path transform="translate(395,356)" d="m0 0h79l2 1 1 159 4 20 7 14 6 7 7 5 13 5 11 2h16l14-3 14-7 10-8 7-10 5-11 4-16 1-11 1-146 1-1h63l17 1v278l-3 1h-73l-1-1-1-30-11 10-15 10-15 7-16 5-10 2-11 1h-19l-18-2-19-5-16-7-11-7-13-11-10-12-8-13-6-15-5-21-2-16z" fill="#9046FC"/>
<path transform="translate(918,896)" d="m0 0h26l23 2 23 4 22 6 20 8 7 5-9 20-17 36-2 1-14-7-24-8-21-4-13-1h-15l-17 2-12 4-9 6-5 8v11l4 7 14 7 27 6 34 6 26 6 16 5 14 7 11 9 8 8 6 9 5 14 2 10v23l-3 14-8 16-7 9-3 4h-2v2l-10 8-14 8-11 5-15 5-24 5-23 2h-25l-24-2-26-5-21-6-16-6-17-8-3-2 1-6 16-34 8-18 6 1 16 8 25 9 24 5 20 2h16l17-2 12-4 9-6 3-6 1-10-4-8-8-5-18-5-58-10-24-6-15-6-12-7-12-11-7-8-6-13-3-11-1-6v-21l3-14 7-16 8-11 8-9 14-10 15-8 20-7 21-4z" fill="#9046FC"/>
<path transform="translate(1194,896)" d="m0 0h27l22 2 23 4 22 6 20 8 7 5-9 20-17 36-5-1-19-8-20-6-17-3-12-1h-16l-17 2-12 4-9 6-5 8v11l4 7 14 7 27 6 34 6 26 6 16 5 14 7 11 9 8 8 7 11 5 15 1 6v24l-4 16-7 14-7 9-5 6-13 10-19 10-18 6-25 5-22 2h-25l-24-2-26-5-21-6-16-6-20-10 1-6 16-34 6-12 3-7 19 9 21 8 19 5 19 3 12 1h17l16-2 12-4 9-6 3-6 1-10-4-8-8-5-17-5-48-8-28-6-18-6-13-7-10-8-10-10-8-16-3-11-1-6v-21l4-17 8-16 10-13 9-8 14-9 15-7 15-5 21-4z" fill="#9046FC"/>
<path transform="translate(1548,352)" d="m0 0h25l19 2 20 5 16 6 15 8 12 9 10 9 10 12 10 17v4l-19 10-22 12-19 10-4-1-9-13-7-7-10-7-11-5-11-3h-27l-17 5-11 6-7 6h-2v2l-5 5-7 10-5 11-4 17v28l4 17 8 16 8 10 12 9 14 7 13 3h25l15-4 13-7 12-11 7-9 3-5 5 1 21 11 23 13 13 7 1 4-8 14-7 9-9 10-11 9-13 8-17 8-16 5-21 4-12 1h-23l-19-2-22-5-21-8-18-10-12-9-10-9-10-10-12-17-9-17-6-18-3-13-2-20v-13l3-24 5-18 8-18 6-10 8-11 9-10 10-10 15-11 18-10 15-6 13-4 22-4z" fill="#9046FC"/>
<path transform="translate(160,896)" d="m0 0h24l19 2 21 5 16 6 18 10 10 8 10 9 11 14 8 14v4l-56 30-4 2-4-1-7-10-9-10-10-7-11-5-11-3h-27l-17 5-11 6-7 6h-2v2l-5 5-7 10-5 11-4 17v28l4 17 8 16 8 10 12 9 14 7 13 3h25l15-4 13-7 12-11 7-9 3-5 5 1 21 11 23 13 13 7 1 4-8 14-7 9-9 10-11 9-13 8-17 8-16 5-21 4-12 1h-23l-19-2-22-5-21-8-18-10-12-9-10-9-10-10-12-17-9-17-6-18-4-20-1-12v-14l2-18 4-18 8-20 8-14 8-11 9-10 10-10 15-11 18-10 15-6 13-4 22-4z" fill="#9046FC"/>
<path transform="translate(1682,1342)" d="m0 0h77l6 7 12 21 8 16 8 18 7 18 9 30 8 36 5 33 3 39v52l-3 39-5 33-7 32-9 29-8 22-11 24-10 19-11 17-2 2h-75l-2-2 9-16 14-29 10-25 11-33 7-28 5-27 4-31 2-26v-53l-3-37-5-32-7-32-9-30-10-27-13-29-10-20-5-8z" fill="#FEFEFE"/>
<path transform="translate(1595,1342)" d="m0 0h77l-2 5-18 36-13 32-10 30-9 38-4 22-4 34-1 17v59l2 26 4 32 8 38 9 31 12 32 12 26 11 22 3 5v2h-77l-7-10-12-22-11-23-11-29-9-30-7-31-4-25-4-40v-67l4-41 7-39 9-34 10-29 10-23 12-24 9-15 2-4z" fill="#FEFEFE"/>
<path transform="translate(1113,250)" d="m0 0h79l1 1 1 383-3 2h-78l-1-1v-384z" fill="#9046FC"/>
<path transform="translate(345,794)" d="m0 0h76l4 1 1 383-3 2h-78l-1-1v-384z" fill="#9046FC"/>
<path transform="translate(1269,356)" d="m0 0h80v279l-2 1h-78l-1-1v-278z" fill="#9046FC"/>
<path transform="translate(1926,1631)" d="m0 0h10l12 2 9 4 6 4 7 6 7 11 4 12 1 15-3 18-6 18-12 30-19 48-3 8-2 1h-50l-1-3 7-24 13-47 1-9-11-7-7-8-6-12-2-8v-17l3-12 5-9 9-10 11-7 10-3z" fill="#FEFEFE"/>
<path transform="translate(1920,1445)" d="m0 0h22l10 3 12 7 7 7 6 10 3 8 2 11-1 13-3 11-5 9-9 10-9 6-10 4-16 2-16-3-10-5-10-9-6-8-5-12-2-11 1-15 5-14 7-9 9-8 13-6z" fill="#FEFEFE"/>
<path transform="translate(1299,227)" d="m0 0h19l13 3 12 7 9 9 6 12 1 4v18l-4 11-6 9-5 5-8 6-10 4-9 2h-17l-13-3-9-5-10-9-6-10-3-8-1-6v-8l3-12 6-11 8-8 12-7z" fill="#9046FC"/>
</svg>
