<?xml version="1.0" encoding="UTF-8"?>
<svg version="1.1" viewBox="0 0 900 900" width="1280" height="1280" xmlns="http://www.w3.org/2000/svg">
<path transform="translate(0)" d="m0 0h900v900h-900z" fill="#0B0F15"/>
<path transform="translate(596,266)" d="m0 0h8l10 3 10 9 4 7 2 5v10l-5 13-8 17-7 14-12 26-8 16-12 25-9 19-11 23-20 41-13 28-8 17-8 16-17 35-12 26-11 23-8 16-11 23-6 11-4 5-10 6-3 1h-12l-8-3-6-4-7-9-9-27-20-66-9-27-4-6-21-7-93-26-19-6-9-7-5-8-2-6v-10l3-9 7-8 13-8 23-12 18-10 68-37 19-10 22-12 18-10 14-7 18-10 32-17 18-10 26-14 22-12 20-10 14-8 12-7 16-8z" fill="#00E6B5"/>
<path transform="translate(605,434)" d="m0 0 10 1 5 4 12 23 30 58 16 32 8 15 2 6v10l-6 8-5 2-7-1-20-8-30-14-29-13-24-11-6-4-4-5-1-2v-7l5-13 14-30 13-29 8-16 6-5z" fill="#89FCEA"/>
<path transform="translate(311,221)" d="m0 0 10 2 25 11 31 14 41 18 35 16 7 6 2 5-1 7-4 6-5 4-46 23-24 13-11 5-7 1-7-3-6-8-13-26-12-22-11-22-12-22-4-10v-6l6-9z" fill="#8AFDEB"/>
</svg>
