<?xml version="1.0" encoding="UTF-8"?>
<svg version="1.1" viewBox="0 0 2000 2000" width="1280" height="1280" xmlns="http://www.w3.org/2000/svg">
<path transform="translate(1328,590)" d="m0 0 15 1 16 5 11 6 10 9 8 9 9 21 1 4v20l-3 12-12 28-8 16-18 37-8 19-17 33-12 24-12 27-6 13-20 40-11 23-16 35-15 31-11 23-12 24-12 26-13 26-11 23-12 25-16 36-9 19-6 8-12 27-13 29-8 16-9 17-11 23-9 21-12 26-16 32-13 28-18 38-9 17-11 23-10 19-7 9-7 7-14 8-12 4h-20l-14-3-13-5-8-6-8-9-9-15-6-15-9-31-8-24-13-44-14-47-14-43-10-34-9-27-6-8-7-6-21-8-42-12-47-13-24-7-35-9-57-16-49-14-15-5-10-6-10-9-7-7-7-14-3-14v-14l3-21 4-7 15-16 10-8 25-13 19-10 25-13 21-12 26-14 22-12 23-13 28-14 21-12 24-12 21-12 29-15 16-9 21-11 21-12 20-10 22-12 25-13 17-10 19-11 17-8 11-7 40-20 22-12 13-8 25-14 24-12 17-10 12-6 17-10 22-11 17-10 14-7 14-8 14-7 13-8 20-9 21-13 22-11 19-10 15-7z" fill="#00E6B1"/>
<path transform="translate(696,492)" d="m0 0 8 1 28 11 16 8 24 10 64 29 25 11 35 15 19 9 21 9 16 8 22 10 15 7 12 5 12 8 7 6 5 9v12l-8 16-7 8-23 12-30 15-23 11-16 8-25 14-26 14-19 10-23 11-12 2-14-3-10-8-6-8-11-22-11-23-14-27-12-22-11-20-9-19-8-16-13-25-8-15-6-12-10-19-4-8-2-9 3-12 7-12 9-6z" fill="#8EFBE6"/>
<path transform="translate(1345,965)" d="m0 0h15l10 5 6 7 8 13 10 21 12 22 12 23 10 19 13 26 10 18 14 28 6 13 29 58 12 22 13 25 2 6 1 7v10l-2 9-6 9-8 6-9 3h-12l-14-5-40-18-93-42-55-25-27-12-14-8-7-8-3-5-1-4v-11l3-12 10-24 12-26 18-41 15-31 15-33 9-21 7-12 7-7z" fill="#8EFBE6"/>
<path transform="translate(696,492)" d="m0 0 8 1 7 3-4 1-6-1h-9l-10 1 1-2z" fill="#19E9BA"/>
<path transform="translate(1345,965)" d="m0 0h15l8 4-3 1-8-2h-17l2-2z" fill="#0AE7B4"/>
<path transform="translate(676,499)" d="m0 0 2 1-2 5h-2l-1 5-3 1-1 5h-2l1-5 7-11z" fill="#19E9BA"/>
<path transform="translate(1523,1298)" d="m0 0 1 3-6 7-4 1 2-3h2l2-5z" fill="#1FEABD"/>
</svg>
