<?xml version="1.0" encoding="UTF-8"?>
<svg version="1.1" viewBox="0 0 900 900" width="1280" height="1280" xmlns="http://www.w3.org/2000/svg">
<path transform="translate(271,276)" d="m0 0h6l4 4 1 8-3 9-7 10-7 7-21 14-14 12-15 15-7 8-9 11-13 18-11 18-11 21-9 23-6 22-3 20v32l3 16 5 12 7 8 12 6 10 2h10l20-4 17-6 25-12 21-12 12-8 1-1-1-7-4-16-1-7v-23l3-18 6-20 8-18 9-16 9-13 11-14 15-16 15-14 17-13 14-10 15-9 18-10 21-10 23-9 25-8 9-2 7 1 3 3 1 8-5 12-8 10-12 9-9 6-13 10-15 14-9 10-10 12-10 13-10 15-12 21-8 17-9 25-6 29-1 11v18l3 21 4 12 6 8 7 6 11 4 6 1h10l17-3 21-7 29-14 23-14 12-8 16-12 10-9 10-13 8-13 9-20 10-26 8-18 7-11 9-9 8-4 3-1h13l13 4 11 7 6 8 2 6-1 8-5 9-6 7-10 6-8 2-23-6h-14l-4 2-3 7-1 11 1 3 15-1 7 3 4 8v8l-6 20-3 11v13l4 6 3 2 11 1 14-3 16-8 14-8 13-10 11-10h2l2-4 10-11 9-14 6-13 4-12 2-14v-15l-2-14-5-17-8-18-7-9-11-8-10-5-13-4-18-3-20-1-18-10-13-10-6-7-2-4v-7l2-4 10-6 15-5 19-3 21-2h29l21 3 21 6 15 7 11 6 12 9 12 11 8 10 10 15 8 17 6 18 3 14 1 8v18l-4 17-6 16-12 22-12 17-11 13-9 10-7 7-8 7-13 11-16 11-18 11-18 10-25 11-24 9-35 10-38 8-6 1h-15l-8-3-5-6-1-9 4-13 7-13 6-9-18 11-17 10-27 13-22 8-24 6-19 3h-24l-18-3-17-5-16-8-14-9-14-12-7-8-5 2-21 12-15 8-19 8-24 8-22 5-13 2h-24l-19-3-16-5-17-8-12-8-10-8-14-14-9-13-9-17-6-18-2-10v-32l3-15 5-17 8-18 10-18 12-17 12-14 22-22 11-9 13-10 17-11 17-10 17-9 28-12 27-9z" fill="white"/>
</svg>
