<?xml version="1.0" encoding="UTF-8"?>
<svg version="1.1" viewBox="0 0 2000 2000" width="1280" height="1280" xmlns="http://www.w3.org/2000/svg">
<path transform="translate(604,614)" d="m0 0h8l8 3 4 5 1 3v16l-3 11-8 16-6 9-9 10-12 11-17 11-16 10-14 10-13 11-12 11-10 9-23 23-7 8-24 28-11 14-10 13-13 18-12 18-10 17-12 20-17 33-10 22-10 27-9 28-8 33-5 27-2 28v45l3 26 5 23 8 19 10 14 6 7 12 9 15 7 12 3 16 2h15l31-4 29-8 34-13 16-7 16-8 32-17 15-9 18-11 14-9 16-9-1-9-5-16-6-28-3-21-1-11v-25l2-21 5-26 7-28 9-25 13-30 12-23 13-21 12-17 10-14 10-13 11-13 12-14 35-35 8-7 13-11 11-9 18-14 28-20 19-12 22-13 26-15 23-12 28-13 42-17 19-7 41-14 28-8 5-1h11l7 3 5 5 2 5v12l-4 14-8 16-8 11-5 6-11 9-12 9-24 15-16 12-11 9-14 12-12 11-2 3h-2l-2 4-16 16-9 11-10 11-9 11-12 15-9 12-10 14-10 15-15 24-11 19-13 24-13 28-9 23-8 24-7 23-7 34-4 28-1 11v47l4 30 5 21 4 12 8 15 7 9 10 9 16 9 11 4 12 2 11 1h14l27-3 27-7 20-7 27-11 29-14 26-14 19-11 13-8 19-12 22-15 18-13 16-12 10-9 8-7 8-8 7-8 13-17 10-15 8-13 8-16 9-20 17-45 14-36 13-27 12-20 13-16 8-8 14-8 16-5h26l17 4 21 10 14 10 9 9 7 14 2 9v8l-4 13-6 12-7 9-12 12-13 9-18 7-14-3-36-10-25-3-11 1-10 6-8 10-2 10v22l2 8 3 1 11-4 6-1h10l9 2 8 4 6 7 4 9 1 10-3 18-6 20-6 17-5 18-2 13v16l3 10 4 6 7 6 11 3 17 1 19-3 15-5 25-12 23-13 17-11 19-14 16-13 10-9 8-7 10-10 7-8 12-14 14-20 9-15 9-17 8-21 6-24 2-13 1-12v-25l-3-30-3-15-6-21-9-24-9-21-9-14-11-12-17-13-13-8-18-8-22-7-31-6-14-2-14-1h-29l-29-15-15-10-14-10-10-9-8-7-7-8-4-8-2-7 1-9 6-10 8-7 20-9 13-4 31-7 33-4 50-4h40l40 4 23 4 28 7 20 7 16 7 16 8 16 9 17 12 14 11 12 11 17 17 9 11 11 14 10 15 10 18 13 27 9 24 8 30 4 24 2 23v25l-2 20-5 20-9 25-8 18-8 16-11 20-11 17-7 11-8 12-13 16-9 11-12 14-7 8-11 12-17 16-10 9-14 12-13 11-17 12-20 14-21 14-20 12-24 13-23 12-23 11-38 16-35 13-37 12-43 12-42 10-44 8-36 4h-13l-14-3-9-6-5-5-3-4-2-7v-15l5-18 12-27 11-19 9-13 2-4-13 9-15 10-21 13-21 12-33 17-29 14-28 11-38 13-30 8-22 4-30 4-13 1h-37l-29-3-26-5-16-5-17-6-24-11-20-11-17-12-11-9-17-16-8-7-14-16v-2l-5 2-11 8-28 17-26 14-24 12-29 13-21 8-30 10-36 10-21 4-29 4-14 1h-34l-25-2-30-5-24-7-15-6-18-8-20-11-12-8-11-8-11-9-26-24-12-14-13-17-9-14-14-26-10-24-8-28-3-16-2-16v-51l4-27 4-17 7-25 10-26 11-25 12-22 10-16 16-24 13-18 10-11 9-11 10-10 2-3h2l2-4 24-24 8-7 7-7 11-9 15-12 16-12 18-13 23-15 21-13 19-11 23-12 19-9 16-8 30-13 24-9 23-8 36-12 23-6z" fill="#2942C8"/>
<path transform="translate(1477,1344)" d="m0 0h490l13 1 1 3-2 1h-500l-3-2z" fill="#FEFEFE"/>
<path transform="translate(1720,1122)" d="m0 0v3l-7 7-7 8-8 8-8 7-4 3 2-4z" fill="#FEFEFE"/>
<path transform="translate(1410,990)" d="m0 0h15l-4 3-11-2z" fill="#FEFEFE"/>
</svg>
