<svg xmlns="http://www.w3.org/2000/svg" xmlns:xlink="http://www.w3.org/1999/xlink" width="500" zoomAndPan="magnify" viewBox="0 0 375 374.999991" height="500" preserveAspectRatio="xMidYMid meet" version="1.0"><defs><g/></defs><rect x="-37.5" width="450" fill="#ffffff" y="-37.499999" height="449.999989" fill-opacity="1"/><rect x="-37.5" width="450" fill="#ffffff" y="-37.499999" height="449.999989" fill-opacity="1"/><g fill="#6900ff" fill-opacity="1"><g transform="translate(0.0000045, 118.93165)"><g><path d="M 38.03125 -53.234375 C 42.90625 -53.234375 47.335938 -52.109375 51.328125 -49.859375 C 55.328125 -47.617188 58.460938 -44.46875 60.734375 -40.40625 C 63.015625 -36.34375 64.15625 -31.617188 64.15625 -26.234375 C 64.15625 -20.835938 63.015625 -16.109375 60.734375 -12.046875 C 58.460938 -7.984375 55.328125 -4.828125 51.328125 -2.578125 C 47.335938 -0.335938 42.90625 0.78125 38.03125 0.78125 C 31.332031 0.78125 26.066406 -1.332031 22.234375 -5.5625 L 22.234375 18.921875 L 7.015625 18.921875 L 7.015625 -52.453125 L 21.546875 -52.453125 L 21.546875 -46.40625 C 25.316406 -50.957031 30.8125 -53.234375 38.03125 -53.234375 Z M 35.390625 -11.703125 C 39.296875 -11.703125 42.5 -13.015625 45 -15.640625 C 47.5 -18.273438 48.75 -21.804688 48.75 -26.234375 C 48.75 -30.648438 47.5 -34.171875 45 -36.796875 C 42.5 -39.429688 39.296875 -40.75 35.390625 -40.75 C 31.492188 -40.75 28.289062 -39.429688 25.78125 -36.796875 C 23.28125 -34.171875 22.03125 -30.648438 22.03125 -26.234375 C 22.03125 -21.804688 23.28125 -18.273438 25.78125 -15.640625 C 28.289062 -13.015625 31.492188 -11.703125 35.390625 -11.703125 Z M 35.390625 -11.703125 "/></g></g></g><g fill="#6900ff" fill-opacity="1"><g transform="translate(67.266158, 118.93165)"><g><path d="M 59.859375 -52.453125 L 59.859375 0 L 45.4375 0 L 45.4375 -6.234375 C 43.414062 -3.960938 41.007812 -2.222656 38.21875 -1.015625 C 35.425781 0.179688 32.40625 0.78125 29.15625 0.78125 C 22.257812 0.78125 16.796875 -1.195312 12.765625 -5.15625 C 8.742188 -9.125 6.734375 -15.007812 6.734375 -22.8125 L 6.734375 -52.453125 L 21.9375 -52.453125 L 21.9375 -25.0625 C 21.9375 -16.601562 25.476562 -12.375 32.5625 -12.375 C 36.207031 -12.375 39.132812 -13.5625 41.34375 -15.9375 C 43.550781 -18.3125 44.65625 -21.835938 44.65625 -26.515625 L 44.65625 -52.453125 Z M 59.859375 -52.453125 "/></g></g></g><g fill="#6900ff" fill-opacity="1"><g transform="translate(134.239851, 118.93165)"><g><path d="M 38.03125 -53.234375 C 42.90625 -53.234375 47.335938 -52.109375 51.328125 -49.859375 C 55.328125 -47.617188 58.460938 -44.46875 60.734375 -40.40625 C 63.015625 -36.34375 64.15625 -31.617188 64.15625 -26.234375 C 64.15625 -20.835938 63.015625 -16.109375 60.734375 -12.046875 C 58.460938 -7.984375 55.328125 -4.828125 51.328125 -2.578125 C 47.335938 -0.335938 42.90625 0.78125 38.03125 0.78125 C 30.8125 0.78125 25.316406 -1.492188 21.546875 -6.046875 L 21.546875 0 L 7.015625 0 L 7.015625 -72.34375 L 22.234375 -72.34375 L 22.234375 -46.890625 C 26.066406 -51.117188 31.332031 -53.234375 38.03125 -53.234375 Z M 35.390625 -11.703125 C 39.296875 -11.703125 42.5 -13.015625 45 -15.640625 C 47.5 -18.273438 48.75 -21.804688 48.75 -26.234375 C 48.75 -30.648438 47.5 -34.171875 45 -36.796875 C 42.5 -39.429688 39.296875 -40.75 35.390625 -40.75 C 31.492188 -40.75 28.289062 -39.429688 25.78125 -36.796875 C 23.28125 -34.171875 22.03125 -30.648438 22.03125 -26.234375 C 22.03125 -21.804688 23.28125 -18.273438 25.78125 -15.640625 C 28.289062 -13.015625 31.492188 -11.703125 35.390625 -11.703125 Z M 35.390625 -11.703125 "/></g></g></g><g fill="#6900ff" fill-opacity="1"><g transform="translate(201.506005, 118.93165)"><g><path d="M 7.015625 -72.34375 L 22.234375 -72.34375 L 22.234375 0 L 7.015625 0 Z M 7.015625 -72.34375 "/></g></g></g><g fill="#6900ff" fill-opacity="1"><g transform="translate(230.849639, 118.93165)"><g><path d="M 7.015625 -52.453125 L 22.234375 -52.453125 L 22.234375 0 L 7.015625 0 Z M 14.625 -59.765625 C 11.832031 -59.765625 9.554688 -60.578125 7.796875 -62.203125 C 6.046875 -63.828125 5.171875 -65.84375 5.171875 -68.25 C 5.171875 -70.65625 6.046875 -72.671875 7.796875 -74.296875 C 9.554688 -75.921875 11.832031 -76.734375 14.625 -76.734375 C 17.414062 -76.734375 19.6875 -75.953125 21.4375 -74.390625 C 23.195312 -72.828125 24.078125 -70.878906 24.078125 -68.546875 C 24.078125 -66.003906 23.195312 -63.90625 21.4375 -62.25 C 19.6875 -60.59375 17.414062 -59.765625 14.625 -59.765625 Z M 14.625 -59.765625 "/></g></g></g><g fill="#6900ff" fill-opacity="1"><g transform="translate(260.193274, 118.93165)"><g><path d="M 32.375 0.78125 C 26.78125 0.78125 21.753906 -0.367188 17.296875 -2.671875 C 12.847656 -4.984375 9.375 -8.1875 6.875 -12.28125 C 4.375 -16.375 3.125 -21.023438 3.125 -26.234375 C 3.125 -31.429688 4.375 -36.078125 6.875 -40.171875 C 9.375 -44.265625 12.847656 -47.460938 17.296875 -49.765625 C 21.753906 -52.078125 26.78125 -53.234375 32.375 -53.234375 C 37.894531 -53.234375 42.71875 -52.078125 46.84375 -49.765625 C 50.976562 -47.460938 53.988281 -44.164062 55.875 -39.875 L 44.0625 -33.546875 C 41.332031 -38.347656 37.398438 -40.75 32.265625 -40.75 C 28.304688 -40.75 25.023438 -39.445312 22.421875 -36.84375 C 19.828125 -34.25 18.53125 -30.710938 18.53125 -26.234375 C 18.53125 -21.742188 19.828125 -18.195312 22.421875 -15.59375 C 25.023438 -13 28.304688 -11.703125 32.265625 -11.703125 C 37.472656 -11.703125 41.40625 -14.109375 44.0625 -18.921875 L 55.875 -12.484375 C 53.988281 -8.316406 50.976562 -5.0625 46.84375 -2.71875 C 42.71875 -0.382812 37.894531 0.78125 32.375 0.78125 Z M 32.375 0.78125 "/></g></g></g><g fill="#6900ff" fill-opacity="1"><g transform="translate(317.82034, 118.93165)"><g/></g></g><g fill="#6900ff" fill-opacity="1"><g transform="translate(0.0000045, 221.514206)"><g><path d="M 32.375 0.78125 C 26.78125 0.78125 21.753906 -0.367188 17.296875 -2.671875 C 12.847656 -4.984375 9.375 -8.1875 6.875 -12.28125 C 4.375 -16.375 3.125 -21.023438 3.125 -26.234375 C 3.125 -31.429688 4.375 -36.078125 6.875 -40.171875 C 9.375 -44.265625 12.847656 -47.460938 17.296875 -49.765625 C 21.753906 -52.078125 26.78125 -53.234375 32.375 -53.234375 C 37.894531 -53.234375 42.71875 -52.078125 46.84375 -49.765625 C 50.976562 -47.460938 53.988281 -44.164062 55.875 -39.875 L 44.0625 -33.546875 C 41.332031 -38.347656 37.398438 -40.75 32.265625 -40.75 C 28.304688 -40.75 25.023438 -39.445312 22.421875 -36.84375 C 19.828125 -34.25 18.53125 -30.710938 18.53125 -26.234375 C 18.53125 -21.742188 19.828125 -18.195312 22.421875 -15.59375 C 25.023438 -13 28.304688 -11.703125 32.265625 -11.703125 C 37.472656 -11.703125 41.40625 -14.109375 44.0625 -18.921875 L 55.875 -12.484375 C 53.988281 -8.316406 50.976562 -5.0625 46.84375 -2.71875 C 42.71875 -0.382812 37.894531 0.78125 32.375 0.78125 Z M 32.375 0.78125 "/></g></g></g><g fill="#6900ff" fill-opacity="1"><g transform="translate(57.61492, 221.514206)"><g><path d="M 7.015625 -72.34375 L 22.234375 -72.34375 L 22.234375 0 L 7.015625 0 Z M 7.015625 -72.34375 "/></g></g></g><g fill="#6900ff" fill-opacity="1"><g transform="translate(86.958555, 221.514206)"><g><path d="M 28.171875 -53.234375 C 36.296875 -53.234375 42.535156 -51.296875 46.890625 -47.421875 C 51.253906 -43.554688 53.4375 -37.726562 53.4375 -29.9375 L 53.4375 0 L 39.1875 0 L 39.1875 -6.53125 C 36.332031 -1.65625 31.003906 0.78125 23.203125 0.78125 C 19.171875 0.78125 15.675781 0.0976562 12.71875 -1.265625 C 9.757812 -2.628906 7.5 -4.515625 5.9375 -6.921875 C 4.382812 -9.328125 3.609375 -12.054688 3.609375 -15.109375 C 3.609375 -19.984375 5.441406 -23.816406 9.109375 -26.609375 C 12.785156 -29.410156 18.457031 -30.8125 26.125 -30.8125 L 38.21875 -30.8125 C 38.21875 -34.125 37.207031 -36.671875 35.1875 -38.453125 C 33.175781 -40.242188 30.15625 -41.140625 26.125 -41.140625 C 23.332031 -41.140625 20.585938 -40.703125 17.890625 -39.828125 C 15.191406 -38.953125 12.898438 -37.765625 11.015625 -36.265625 L 5.5625 -46.890625 C 8.414062 -48.910156 11.84375 -50.472656 15.84375 -51.578125 C 19.84375 -52.679688 23.953125 -53.234375 28.171875 -53.234375 Z M 27 -9.453125 C 29.601562 -9.453125 31.910156 -10.050781 33.921875 -11.25 C 35.941406 -12.457031 37.375 -14.234375 38.21875 -16.578125 L 38.21875 -21.9375 L 27.78125 -21.9375 C 21.539062 -21.9375 18.421875 -19.890625 18.421875 -15.796875 C 18.421875 -13.847656 19.1875 -12.300781 20.71875 -11.15625 C 22.25 -10.019531 24.34375 -9.453125 27 -9.453125 Z M 27 -9.453125 "/></g></g></g><g fill="#6900ff" fill-opacity="1"><g transform="translate(147.108146, 221.514206)"><g><path d="M 24.671875 0.78125 C 20.316406 0.78125 16.054688 0.242188 11.890625 -0.828125 C 7.734375 -1.898438 4.421875 -3.25 1.953125 -4.875 L 7.015625 -15.796875 C 9.359375 -14.296875 12.1875 -13.070312 15.5 -12.125 C 18.8125 -11.1875 22.0625 -10.71875 25.25 -10.71875 C 31.6875 -10.71875 34.90625 -12.3125 34.90625 -15.5 C 34.90625 -17 34.023438 -18.070312 32.265625 -18.71875 C 30.515625 -19.363281 27.820312 -19.914062 24.1875 -20.375 C 19.894531 -21.03125 16.347656 -21.78125 13.546875 -22.625 C 10.753906 -23.46875 8.332031 -24.960938 6.28125 -27.109375 C 4.238281 -29.253906 3.21875 -32.304688 3.21875 -36.265625 C 3.21875 -39.585938 4.175781 -42.53125 6.09375 -45.09375 C 8.007812 -47.65625 10.800781 -49.648438 14.46875 -51.078125 C 18.144531 -52.515625 22.488281 -53.234375 27.5 -53.234375 C 31.195312 -53.234375 34.878906 -52.828125 38.546875 -52.015625 C 42.222656 -51.203125 45.265625 -50.082031 47.671875 -48.65625 L 42.609375 -37.828125 C 37.992188 -40.429688 32.957031 -41.734375 27.5 -41.734375 C 24.25 -41.734375 21.8125 -41.273438 20.1875 -40.359375 C 18.5625 -39.453125 17.75 -38.285156 17.75 -36.859375 C 17.75 -35.234375 18.625 -34.09375 20.375 -33.4375 C 22.132812 -32.789062 24.929688 -32.175781 28.765625 -31.59375 C 33.054688 -30.875 36.566406 -30.109375 39.296875 -29.296875 C 42.023438 -28.484375 44.394531 -27.003906 46.40625 -24.859375 C 48.425781 -22.710938 49.4375 -19.722656 49.4375 -15.890625 C 49.4375 -12.640625 48.457031 -9.742188 46.5 -7.203125 C 44.550781 -4.671875 41.707031 -2.707031 37.96875 -1.3125 C 34.238281 0.0820312 29.804688 0.78125 24.671875 0.78125 Z M 24.671875 0.78125 "/></g></g></g><g fill="#6900ff" fill-opacity="1"><g transform="translate(198.873837, 221.514206)"><g><path d="M 24.671875 0.78125 C 20.316406 0.78125 16.054688 0.242188 11.890625 -0.828125 C 7.734375 -1.898438 4.421875 -3.25 1.953125 -4.875 L 7.015625 -15.796875 C 9.359375 -14.296875 12.1875 -13.070312 15.5 -12.125 C 18.8125 -11.1875 22.0625 -10.71875 25.25 -10.71875 C 31.6875 -10.71875 34.90625 -12.3125 34.90625 -15.5 C 34.90625 -17 34.023438 -18.070312 32.265625 -18.71875 C 30.515625 -19.363281 27.820312 -19.914062 24.1875 -20.375 C 19.894531 -21.03125 16.347656 -21.78125 13.546875 -22.625 C 10.753906 -23.46875 8.332031 -24.960938 6.28125 -27.109375 C 4.238281 -29.253906 3.21875 -32.304688 3.21875 -36.265625 C 3.21875 -39.585938 4.175781 -42.53125 6.09375 -45.09375 C 8.007812 -47.65625 10.800781 -49.648438 14.46875 -51.078125 C 18.144531 -52.515625 22.488281 -53.234375 27.5 -53.234375 C 31.195312 -53.234375 34.878906 -52.828125 38.546875 -52.015625 C 42.222656 -51.203125 45.265625 -50.082031 47.671875 -48.65625 L 42.609375 -37.828125 C 37.992188 -40.429688 32.957031 -41.734375 27.5 -41.734375 C 24.25 -41.734375 21.8125 -41.273438 20.1875 -40.359375 C 18.5625 -39.453125 17.75 -38.285156 17.75 -36.859375 C 17.75 -35.234375 18.625 -34.09375 20.375 -33.4375 C 22.132812 -32.789062 24.929688 -32.175781 28.765625 -31.59375 C 33.054688 -30.875 36.566406 -30.109375 39.296875 -29.296875 C 42.023438 -28.484375 44.394531 -27.003906 46.40625 -24.859375 C 48.425781 -22.710938 49.4375 -19.722656 49.4375 -15.890625 C 49.4375 -12.640625 48.457031 -9.742188 46.5 -7.203125 C 44.550781 -4.671875 41.707031 -2.707031 37.96875 -1.3125 C 34.238281 0.0820312 29.804688 0.78125 24.671875 0.78125 Z M 24.671875 0.78125 "/></g></g></g><g fill="#ffffff" fill-opacity="1"><g transform="translate(0.0000045, 324.096762)"><g><path d="M 53.046875 -14.625 L 21.359375 -14.625 L 15.3125 0 L -0.875 0 L 29.546875 -68.25 L 45.140625 -68.25 L 75.65625 0 L 59.078125 0 Z M 48.0625 -26.625 L 37.25 -52.75 L 26.421875 -26.625 Z M 48.0625 -26.625 "/></g></g></g><g fill="#ffffff" fill-opacity="1"><g transform="translate(74.675182, 324.096762)"><g><path d="M 37.640625 -68.25 C 43.679688 -68.25 48.925781 -67.238281 53.375 -65.21875 C 57.832031 -63.207031 61.265625 -60.347656 63.671875 -56.640625 C 66.078125 -52.941406 67.28125 -48.554688 67.28125 -43.484375 C 67.28125 -38.484375 66.078125 -34.113281 63.671875 -30.375 C 61.265625 -26.632812 57.832031 -23.769531 53.375 -21.78125 C 48.925781 -19.800781 43.679688 -18.8125 37.640625 -18.8125 L 23.890625 -18.8125 L 23.890625 0 L 8.09375 0 L 8.09375 -68.25 Z M 36.75 -31.6875 C 41.5 -31.6875 45.109375 -32.707031 47.578125 -34.75 C 50.046875 -36.800781 51.28125 -39.710938 51.28125 -43.484375 C 51.28125 -47.316406 50.046875 -50.253906 47.578125 -52.296875 C 45.109375 -54.347656 41.5 -55.375 36.75 -55.375 L 23.890625 -55.375 L 23.890625 -31.6875 Z M 36.75 -31.6875 "/></g></g></g><g fill="#ffffff" fill-opacity="1"><g transform="translate(146.035793, 324.096762)"><g><path d="M 40.75 1.171875 C 33.800781 1.171875 27.515625 -0.335938 21.890625 -3.359375 C 16.265625 -6.378906 11.84375 -10.570312 8.625 -15.9375 C 5.40625 -21.300781 3.796875 -27.363281 3.796875 -34.125 C 3.796875 -40.882812 5.40625 -46.945312 8.625 -52.3125 C 11.84375 -57.675781 16.265625 -61.867188 21.890625 -64.890625 C 27.515625 -67.910156 33.835938 -69.421875 40.859375 -69.421875 C 46.765625 -69.421875 52.109375 -68.378906 56.890625 -66.296875 C 61.671875 -64.222656 65.6875 -61.234375 68.9375 -57.328125 L 58.796875 -47.96875 C 54.179688 -53.300781 48.457031 -55.96875 41.625 -55.96875 C 37.40625 -55.96875 33.632812 -55.039062 30.3125 -53.1875 C 27 -51.332031 24.414062 -48.75 22.5625 -45.4375 C 20.71875 -42.125 19.796875 -38.351562 19.796875 -34.125 C 19.796875 -29.894531 20.71875 -26.125 22.5625 -22.8125 C 24.414062 -19.5 27 -16.914062 30.3125 -15.0625 C 33.632812 -13.207031 37.40625 -12.28125 41.625 -12.28125 C 48.457031 -12.28125 54.179688 -14.976562 58.796875 -20.375 L 68.9375 -11.015625 C 65.6875 -7.046875 61.65625 -4.019531 56.84375 -1.9375 C 52.03125 0.132812 46.664062 1.171875 40.75 1.171875 Z M 40.75 1.171875 "/></g></g></g><g fill="#ffffff" fill-opacity="1"><g transform="translate(217.493881, 324.096762)"><g><path d="M 30.515625 1.171875 C 25.117188 1.171875 19.898438 0.441406 14.859375 -1.015625 C 9.828125 -2.484375 5.785156 -4.390625 2.734375 -6.734375 L 8.09375 -18.625 C 11.019531 -16.476562 14.492188 -14.753906 18.515625 -13.453125 C 22.546875 -12.148438 26.578125 -11.5 30.609375 -11.5 C 35.097656 -11.5 38.414062 -12.164062 40.5625 -13.5 C 42.707031 -14.832031 43.78125 -16.601562 43.78125 -18.8125 C 43.78125 -20.4375 43.144531 -21.785156 41.875 -22.859375 C 40.601562 -23.929688 38.976562 -24.789062 37 -25.4375 C 35.019531 -26.09375 32.335938 -26.8125 28.953125 -27.59375 C 23.753906 -28.820312 19.5 -30.054688 16.1875 -31.296875 C 12.875 -32.535156 10.03125 -34.519531 7.65625 -37.25 C 5.28125 -39.976562 4.09375 -43.617188 4.09375 -48.171875 C 4.09375 -52.128906 5.164062 -55.71875 7.3125 -58.9375 C 9.457031 -62.15625 12.691406 -64.707031 17.015625 -66.59375 C 21.335938 -68.476562 26.617188 -69.421875 32.859375 -69.421875 C 37.210938 -69.421875 41.46875 -68.898438 45.625 -67.859375 C 49.789062 -66.816406 53.429688 -65.320312 56.546875 -63.375 L 51.671875 -51.375 C 45.367188 -54.957031 39.066406 -56.75 32.765625 -56.75 C 28.335938 -56.75 25.066406 -56.03125 22.953125 -54.59375 C 20.847656 -53.164062 19.796875 -51.28125 19.796875 -48.9375 C 19.796875 -46.601562 21.015625 -44.863281 23.453125 -43.71875 C 25.890625 -42.582031 29.609375 -41.460938 34.609375 -40.359375 C 39.804688 -39.128906 44.0625 -37.894531 47.375 -36.65625 C 50.695312 -35.425781 53.539062 -33.476562 55.90625 -30.8125 C 58.28125 -28.144531 59.46875 -24.535156 59.46875 -19.984375 C 59.46875 -16.085938 58.378906 -12.53125 56.203125 -9.3125 C 54.023438 -6.09375 50.757812 -3.539062 46.40625 -1.65625 C 42.050781 0.226562 36.753906 1.171875 30.515625 1.171875 Z M 30.515625 1.171875 "/></g></g></g><g fill="#ffffff" fill-opacity="1"><g transform="translate(279.690702, 324.096762)"><g><path d="M 19.3125 18.921875 C 15.40625 13.003906 12.394531 6.144531 10.28125 -1.65625 C 8.175781 -9.457031 7.125 -17.8125 7.125 -26.71875 C 7.125 -35.625 8.175781 -43.988281 10.28125 -51.8125 C 12.394531 -59.644531 15.40625 -66.488281 19.3125 -72.34375 L 33.828125 -72.34375 C 29.734375 -65.125 26.742188 -57.789062 24.859375 -50.34375 C 22.972656 -42.90625 22.03125 -35.03125 22.03125 -26.71875 C 22.03125 -18.394531 22.972656 -10.507812 24.859375 -3.0625 C 26.742188 4.375 29.734375 11.703125 33.828125 18.921875 Z M 19.3125 18.921875 "/></g></g></g><g fill="#ffffff" fill-opacity="1"><g transform="translate(314.493624, 324.096762)"><g><path d="M 0.96875 18.921875 C 5.070312 11.703125 8.082031 4.375 10 -3.0625 C 11.914062 -10.507812 12.875 -18.394531 12.875 -26.71875 C 12.875 -35.03125 11.914062 -42.90625 10 -50.34375 C 8.082031 -57.789062 5.070312 -65.125 0.96875 -72.34375 L 15.5 -72.34375 C 19.46875 -66.5625 22.503906 -59.753906 24.609375 -51.921875 C 26.722656 -44.085938 27.78125 -35.6875 27.78125 -26.71875 C 27.78125 -17.75 26.738281 -9.378906 24.65625 -1.609375 C 22.582031 6.160156 19.53125 13.003906 15.5 18.921875 Z M 0.96875 18.921875 "/></g></g></g><g fill="#ffffff" fill-opacity="1"><g transform="translate(349.394022, 324.096762)"><g><path d="M 12.765625 -34.21875 C 10.109375 -34.21875 7.867188 -35.128906 6.046875 -36.953125 C 4.222656 -38.773438 3.3125 -41.050781 3.3125 -43.78125 C 3.3125 -46.570312 4.222656 -48.828125 6.046875 -50.546875 C 7.867188 -52.273438 10.109375 -53.140625 12.765625 -53.140625 C 15.429688 -53.140625 17.675781 -52.273438 19.5 -50.546875 C 21.320312 -48.828125 22.234375 -46.570312 22.234375 -43.78125 C 22.234375 -41.050781 21.320312 -38.773438 19.5 -36.953125 C 17.675781 -35.128906 15.429688 -34.21875 12.765625 -34.21875 Z M 12.875 -18.140625 C 15.601562 -18.140625 17.84375 -17.273438 19.59375 -15.546875 C 21.351562 -13.828125 22.234375 -11.570312 22.234375 -8.78125 C 22.234375 -7.476562 22.066406 -6.175781 21.734375 -4.875 C 21.410156 -3.570312 20.695312 -1.625 19.59375 0.96875 L 14.046875 15.015625 L 4.390625 15.015625 L 8.671875 -0.484375 C 7.046875 -1.140625 5.757812 -2.195312 4.8125 -3.65625 C 3.875 -5.113281 3.40625 -6.820312 3.40625 -8.78125 C 3.40625 -11.570312 4.300781 -13.828125 6.09375 -15.546875 C 7.882812 -17.273438 10.144531 -18.140625 12.875 -18.140625 Z M 12.875 -18.140625 "/></g></g></g></svg>