<?xml version="1.0" encoding="UTF-8"?>
<svg version="1.1" viewBox="0 0 2048 727" width="1280" height="1280" xmlns="http://www.w3.org/2000/svg">
<path transform="translate(743,8)" d="m0 0h121l31 2 24 4 19 5 18 7 16 8 12 8 10 8 15 15 10 14 8 14 8 21 5 20 3 22v39l-3 20-5 19-6 16-9 17-10 14-14 15-12 10-13 8-16 8-14 5-19 5-13 2-13 1h-153l-1-1v-325zm115 96-1 1v136h16l15-3 12-5 10-7 7-7 7-11 5-16 1-7v-20l-3-16-5-13-9-13-9-8-12-6-16-4z" fill="#F9B91B"/>
<path transform="translate(1143,8)" d="m0 0h123l4 9 19 56 14 41 22 65 14 41 32 94 6 17v4h-118l-3-8-8-30v-3h-85l-2 11-6 28-2 2h-117l-1-2 13-38 16-50 12-36 20-61 19-59 12-36 14-43zm62 98-6 28-11 57-5 25h45l-19-96-2-13z" fill="#F9B91B"/>
<path transform="translate(1313,8)" d="m0 0h115l2 2 16 64 21 83 11 44 2 1 1-8 14-55 17-67 14-55 3-8 5-1h111l-1 6-16 45-36 98-23 63-18 49-15 41-9 24-1 1h-94l-3-5-10-27-21-58-18-49-13-36-18-49-20-55-13-36-3-8z" fill="#F9B91B"/>
<path transform="translate(1929,3)" d="m0 0h23l24 3 19 5 19 7 17 9 6 4-1 7-18 49-7 20-3 1-14-9-19-10-15-5-19-3-10 1-9 4-5 5-2 5v8l3 8 8 6 10 4 43 11 16 6 15 8 11 9 9 9 7 11 7 16 4 15v34l-6 22-9 19-8 11-9 10-10 9-20 12-20 8-25 6-17 2h-21l-27-3-24-5-20-6-16-6-18-8-2-2 1-6 15-39 13-35 2-6 5 2 12 9 13 8 19 9 14 4 13 2h16l10-3 5-3 3-5 1-9-2-9-6-7-13-5-43-9-19-7-14-8-13-11-9-11-8-16-4-15-1-6v-22l4-21 6-16 8-15 11-14 10-10 15-11 16-9 19-7 17-4z" fill="#F9B91B"/>
<path transform="translate(1545,429)" d="m0 0h76l1 1v114h111v-114l1-1h76l1 1v297h-78v-122h-111v122h-78v-297z" fill="#132A4D"/>
<path transform="translate(240,429)" d="m0 0h76l1 1v114h111v-114l1-1h76l1 1v297h-78v-122h-111v122h-77l-1-3v-292z" fill="#132A4D"/>
<path transform="translate(890,429)" d="m0 0h89l3 4 14 39 15 41 11 30 35 95 17 47 14 38v4h-84l-17-51h-106l-11 30-8 21h-83l1-7 19-51 30-80 13-35 33-88 13-35zm43 90-3 8-13 41-12 36-3 8v4h64l-1-6-10-31-18-55-2-5z" fill="#132A4D"/>
<path transform="translate(570,429)" d="m0 0h171l1 3-1 62-1 1-92 1v46l86 1 1 1v63l-1 1-85 1-1 7-1 43h94l1 3-1 65h-171l-1-18v-217z" fill="#132A4D"/>
<path transform="translate(0,8)" d="m0 0h15l39 2h52l48-2 2 1v6l-29 9-13 5-1 1v185l1 18 4 20 6 15 8 13 11 12 13 9 17 7 16 3h31l19-4 13-5 11-7 9-7 10-13 8-17 4-15 2-13 1-140v-61l-10-3-27-10-2-5 1-2 4-1 16 1h54l38-2 3 2-1 4-16 8-23 10-2 1-1 36-1 161-3 19-5 16-8 17-9 12-10 11-13 10-14 8-21 8-25 6-24 3h-44l-26-4-21-6-16-7-11-6-10-8-12-12-9-14-5-11-5-23-1-16v-203l-8-4-29-11-1-1z" fill="#F9B91B"/>
<path transform="translate(534)" d="m0 0h58l34 5 26 6 21 7 2 5 6 53 3 22v13l-4 1-5-5-7-14-14-36-5-10-6-5-17-8-22-7-17-3h-29l-19 4-13 5-13 7-12 9-11 11-10 14-8 16-6 16-4 14-3 16-2 27v12l2 25 5 24 7 21 9 19 11 16 11 12 15 11 19 9 17 4 8 1h20l17-2 21-5 16-6 15-9 10-9 9-14 11-27 5-9 5-1 1 1v10l-8 36-7 30-5 5-14 6-22 7-23 5-29 4-13 1h-46l-30-4-20-5-22-8-17-9-14-10-12-11-7-7-11-15-10-19-7-21-4-19-1-7-1-24 1-20 4-28 5-20 8-21 9-17 10-14 9-10 5-5 11-10 15-10 16-8 15-6 21-6 21-4z" fill="#F9B91B"/>
<path transform="translate(1658,8)" d="m0 0h112l2 1v325l-1 1h-113l-1-1v-325z" fill="#F9B91B"/>
<path transform="translate(1296,429)" d="m0 0h178l26 1v64l-1 1h-62v232h-78v-232h-63l-1-1v-64z" fill="#142B4D"/>
<path transform="translate(1127,429)" d="m0 0h76l1 1 1 228h49l43 1v68h-170l-1-70v-185z" fill="#132A4D"/>
</svg>
