<?xml version="1.0" encoding="UTF-8"?>
<svg version="1.1" viewBox="0 0 2252 800" width="1280" height="1280" xmlns="http://www.w3.org/2000/svg">
<path transform="translate(818,8)" d="m0 0h142l33 3 25 5 17 5 19 8 16 8 15 10 14 12 9 9 12 16 10 18 7 17 6 21 4 21 2 29-1 24-3 21-5 21-8 20-9 17-8 12-9 11-7 8-11 9-14 10-16 9-20 8-18 5-17 3-9 1-22 1h-148l-8-1-1-1v-357zm126 108-1 31v35l1 82h17l18-4 16-8 10-9 7-9 6-13 3-12v-32l-4-16-5-12-7-11-8-8-14-8-12-4-13-2z" fill="#fff"/>
<path transform="translate(1256,8)" d="m0 0h136l3 3 13 38 11 33 14 41 16 47 17 50 19 56 28 82 3 8v3h-132l-3-6-10-38-91-1-5 25-4 17-2 3h-132l3-10 20-61 14-43 36-110 14-43 18-55 10-32 3-6zm69 112-18 92-4 21v4h46l-8-42-13-65-1-9z" fill="#fff"/>
<path transform="translate(1443,8)" d="m0 0h128l2 2 26 103 17 66 8 31 1 9h2l1-7 16-63 16-64 11-43 8-31 2-3h127l3 1-3 9-11 31-8 21-7 20-19 52-11 30-23 63-14 38-15 41-14 38-6 16-1 1h-106l-5-12-19-52-21-57-15-42-21-57-23-64-19-52-7-19-1-5z" fill="#fff"/>
<path transform="translate(2121,2)" d="m0 0h26l28 4 19 5 21 8 19 10 7 5-1 7-14 39-13 35-2 5-5-1-10-7-16-9-16-7-14-4-15-2-11 1-10 4-6 7-1 3v11l4 8 9 6 12 4 40 10 20 7 17 9 12 9 7 6 10 13 8 15 6 17v57h-2l-5 16-8 16-6 10-7 9h-2l-2 4-10 9-11 8-16 9-17 7-17 5-28 5h-10l-10 1-7-1-16-1-31-5-26-7-25-9-21-10-1-5 15-40 8-21 10-27 2-5 5 2 13 10 18 11 17 8 17 5 12 2h18l9-2 8-5 3-5 1-12-3-8-4-5-11-5-28-6-26-6-19-7-14-8-10-8-11-11-9-14-5-11-4-15-1-7v-26l4-21 7-19 8-15 12-16 12-12 13-10 15-9 16-7 15-5 19-4z" fill="#fff"/>
<path transform="translate(1698,471)" d="m0 0h84l3 3-1 123h121v-125l1-1h84l3 3-1 326h-87v-134h-120v133l-1 1h-87v-327z" fill="#fff"/>
<path transform="translate(263,471)" d="m0 0h85l2 5-1 121h121v-125l1-1h85l1 1v328h-87v-134h-120l-1 134h-87v-328z" fill="#fff"/>
<path transform="translate(979,471)" d="m0 0h97l4 3 13 37 9 24 23 63 14 38 12 33 18 49 23 63 6 17v2h-95l-12-36-6-17-1-2h-115l-9 26-11 29h-94l3-11 19-51 13-34 7-20 11-29 22-59 21-56 16-43 9-24zm47 102-9 29-12 36-12 35-1 3h69l-2-9-12-37-18-54z" fill="#fff"/>
<path transform="translate(626,471)" d="m0 0h188l2 1 1 4-1 69-103 1-1 50h94l3 3v69l-1 2h-95v17l-1 37h103l1 1v75h-191v-327z" fill="#fff"/>
<path transform="translate(0,8)" d="m0 0h18l35 2h68l49-2 2 2 1 6-5 3-27 8-15 6-1 18v189l2 22 3 14 6 16 6 11 8 11 9 9 14 9 11 5 14 4 15 2h22l20-3 13-4 16-8 11-8 8-8 9-14 4-8 5-15 3-15 1-10 1-216-9-3-31-11-3-5 1-5 6-1 17 1h62l39-2 3 1 1 7-12 6-28 12-6 3-1 11-1 204-2 15-4 17-8 20-10 16-9 10-5 5-8 7-15 10-17 8-14 5-18 5-25 4-9 1h-52l-26-4-19-5-16-6-17-9-12-9-9-8v-2h-2l-10-13-8-16-4-13-3-16-1-13v-202l1-23-4-4-20-8-18-7z" fill="#fff"/>
<path transform="translate(573)" d="m0 0h94l1 1 32 6 17 4 24 8 2 5 7 61 4 29-1 8-1 2h-5l-8-9-8-19-11-29-8-16-9-6-16-7-18-6-18-4-20-2-22 2-17 4-15 6-13 7-14 11-9 9-9 12-8 13-7 16-6 18-5 25-2 18-1 21 2 27 4 23 7 24 9 21 10 17 9 11 4 4v2l4 2 10 9 15 9 15 6 17 4 9 1h21l23-3 20-5 16-7 15-8 13-12 7-10 7-17 8-20 5-7 6-2 2 2v10l-5 25-7 29-5 22-4 4-16 7-21 7-21 5-23 4-31 3h-52l-25-3-23-5-20-6-18-8-11-6-12-8-13-11-5-4-7-8-12-16-10-18-8-21-5-21-3-25v-26l3-29 5-26 6-19 6-15 9-17 8-12 8-10 10-11 11-9 14-10 14-8 17-8 18-6 26-6 12-2z" fill="#fff"/>
<path transform="translate(1822,8)" d="m0 0h126l2 3v357l-1 1h-128v-360z" fill="#fff"/>
<path transform="translate(1425,471)" d="m0 0h186l39 1 1 38v34l-1 1-68 1-1 30-1 224h-87v-255h-69l-1-1v-71z" fill="#fff"/>
<path transform="translate(1239,471)" d="m0 0h85l1 1v251h101l1 1v76h-189v-328z" fill="#fff"/>
<path transform="translate(668)" d="m0 0 3 1z" fill="#fff"/>
<path transform="translate(2251,216)" d="m0 0" fill="#fff"/>
<path transform="translate(570)" d="m0 0" fill="#fff"/>
</svg>
